PathFileType	4	(X/Y/Z)	pose_F01_0-83.trc
DataRate	CameraRate	NumFrames	NumMarkers	Units	OrigDataRate	OrigDataStartFrame	OrigNumFrames
30	30	10	21	m	30	23	83
Frame#	Time	CHip			RHip			RKnee			RAnkle			RBigToe			RSmallToe			RHeel			LHip			LKnee			LAnkle			LBigToe			LSmallToe			LHeel			Neck			Nose			RShoulder			RElbow			RWrist			LShoulder			LElbow			LWrist			
		X1	Y1	Z1	X2	Y2	Z2	X3	Y3	Z3	X4	Y4	Z4	X5	Y5	Z5	X6	Y6	Z6	X7	Y7	Z7	X8	Y8	Z8	X9	Y9	Z9	X10	Y10	Z10	X11	Y11	Z11	X12	Y12	Z12	X13	Y13	Z13	X14	Y14	Z14	X15	Y15	Z15	X16	Y16	Z16	X17	Y17	Z17	X18	Y18	Z18	X19	Y19	Z19	X20	Y20	Z20	X21	Y21	Z21	
23	0.7666666666666667	-0.24178448837542232	1.878016086607254	-0.5269426780856732	-0.25600029976048877	1.8752881126761032	-0.45845644111253475	-0.256222220369617	1.7321617221783816	-0.4322614316391748													-0.22428182765634694	1.8819092802257755	-0.5890648921635153	-0.22298041301930893	1.7392327576196702	-0.5541010907639934	-0.21808766093633644	1.5900340216436488	-0.5356217377057554	-0.2259187152954478	1.5597515775185524	-0.6033565948178881	-0.21448664680242285	1.5695073587339807	-0.6163559846744338	-0.22669687492434057	1.584286569961312	-0.5129991779677385	-0.24007411157032962	2.051221247256453	-0.5257408172150593	-0.24555300415312106	2.1234569658877063	-0.5776509349750351	-0.2614704221626578	2.0491948297139717	-0.4342837759841015	-0.2660834046151725	1.9549543966165983	-0.4004451677502408	-0.2787691787018516	1.8811824843937242	-0.398018711403565	-0.21178494388766228	2.053406923885049	-0.6217480818807084	-1.442021991357493	1.873096703280676	0.6822117904303094	-0.20189611996220158	1.8945334803279892	-0.6478547659777293
24	0.8	-0.24274697452882799	1.8778021219966055	-0.5300926923540376	-0.2559289638655186	1.8743522647946749	-0.4583508624280423	-0.2561497631218115	1.7324206966978122	-0.4323537848944777													-0.22437288863681448	1.8793359075264306	-0.5887706115152459	-0.2195534041213978	1.736061696683189	-0.5530603010251177	-0.2180884418929797	1.5900511277718015	-0.5356275241461093	-0.2269550654051979	1.560056414695555	-0.6065951668276723	-0.21546153363731962	1.5695332562714337	-0.6195481059632885	-0.22669687492434057	1.584286569961312	-0.5129991779677385	-0.240175710775537	2.0500950045380217	-0.5258107814765601	-0.24556634952311598	2.124630053632487	-0.578284969872286	-0.261600660898279	2.048106828967035	-0.4343059313427343	-0.2670319034172082	1.956566218679822	-0.40369440916778393	-0.2757897265982191	1.8798566373384407	-0.3966177983405659	-0.21176037762380495	2.053568727024599	-0.6216984924542798	-1.446617533570149	1.8732812045158755	0.6898887358391517	-0.20148426116085477	1.8978957851329963	-0.646393341022279
25	0.8333333333333334	-0.2428637944011021	1.8790659349621681	-0.5302809351173597	-0.2560560557833089	1.8756859185948265	-0.4585603236457702	-0.2560773058740059	1.7326796712172428	-0.43244613814978056													-0.22431395252886405	1.881732405674275	-0.5890564613701365	-0.21995462805081853	1.7389577300773955	-0.5530595611401311	-0.21808922284962295	1.590068233899954	-0.5356333105864632	-0.22588588908441914	1.5601739915291788	-0.6031160649744202	-0.2125440601683629	1.5676280936903781	-0.6178981771884507	-0.22669687492434057	1.584286569961312	-0.5129991779677385	-0.2401359674808305	2.0524265324042474	-0.5261887765641503	-0.24647553201189634	2.123632939404552	-0.5806639517767742	-0.2615867488575416	2.048165568887512	-0.43428090943382563	-0.2701250451138286	1.9547434848119332	-0.4047539699945592	-0.27869140576396845	1.8800562810408274	-0.39771374217871824	-0.21384618719614898	2.054464099101065	-0.6200371923710348	-1.451213075782805	1.873465705751075	0.697565681247994	-0.19963860591779362	1.8926905086684405	-0.6496320007762838
26	0.8666666666666667	-0.24256943044040946	1.87930648874894	-0.5302136657143698	-0.25586901214621244	1.8767976909688187	-0.4586521940428408	-0.2560731575680682	1.7323943425016273	-0.4324613686232509													-0.22413452210951015	1.8829999461568154	-0.5892491915195677	-0.2197227887820494	1.7371329985337625	-0.553001730378219	-0.21809000380626622	1.5900853400281068	-0.5356390970268172	-0.22652736472118312	1.5610567935108646	-0.6068479342030264	-0.21427797410763122	1.5685822413856576	-0.616331268399191	-0.22669687492434057	1.584286569961312	-0.5129991779677385	-0.24007893631925348	2.051214762566004	-0.5257358376544456	-0.24847214347459606	2.1247416415419393	-0.5791739875268848	-0.26154507987094106	2.048099949564734	-0.43424355206179355	-0.2670936764134504	1.9563407451155042	-0.40371197895936833	-0.27768651639357556	1.884212015484343	-0.39526271103787264	-0.21179748247382488	2.053500398167816	-0.6217913394529173	-1.4052915288385237	1.871474549944274	0.6207492717057634	-0.19947816723321146	1.8917019855284607	-0.649191263175022
27	0.9	-0.23950886829105225	1.8804736956161228	-0.5293006955298716	-0.2548423850115884	1.8762573744001076	-0.45549782382709736	-0.2562810779235321	1.7328920986103695	-0.43228990452212884													-0.223999927856066	1.8815187448776474	-0.5890362738423649	-0.21989392498131632	1.7387201602898075	-0.5530870135433925	-0.2180907847629095	1.5901024461562594	-0.5356448834671711	-0.22359538396824774	1.5592632453043627	-0.605218140059915	-0.21231767513774874	1.5668308133339224	-0.6178928237646326	-0.22669687492434057	1.584286569961312	-0.5129991779677385	-0.24006139583509475	2.0511943803295676	-0.5257434081855943	-0.24845177721808145	2.1235778953308535	-0.5786073206538693	-0.2614526421165974	2.0491795452737525	-0.4342522550778725	-0.2689757597922804	1.9537573460280575	-0.40123825614456204	-0.27757424100525546	1.8769523262619143	-0.393954289358992	-0.21177381048343707	2.053513535261938	-0.6217047777288274	-1.4326615221990346	1.8724720134620543	0.666642994782683	-0.2017735805726354	1.8952117366850108	-0.6473332152075797
28	0.9333333333333333	-0.24189210354859392	1.87954983534841	-0.527152919250568	-0.2562321230765198	1.875635659278477	-0.45849753611539856	-0.256488998278996	1.7333898547191118	-0.4321184404210068													-0.22455353662639785	1.8818770956388489	-0.5891700491523132	-0.22091906913500067	1.7397625734899547	-0.5562559454234495	-0.21809156571955274	1.5901195522844118	-0.535650669907525	-0.22371988492786854	1.5599836189766028	-0.6052394747402069	-0.21248835009863998	1.5675585871442197	-0.6179374176200191	-0.22669687492434057	1.584286569961312	-0.5129991779677385	-0.2400867336532395	2.052464321377699	-0.5261445502076817	-0.24750158509152584	2.1246104055176347	-0.5761788809166167	-0.26154284288307234	2.0481384815511574	-0.43428549742465583	-0.2672089471155884	1.9551028331905558	-0.4036785815699612	-0.2780514602121196	1.8827438896154955	-0.3952428554084759	-0.21179719220959786	2.054819241373163	-0.6220889467620639	-1.4286512461752339	1.8739467653460342	0.6589854243924517	-0.20170252661488436	1.8968318649099143	-0.6472916531378612
29	0.9666666666666667	-0.23975878566194167	1.8811752290043222	-0.529305483771977	-0.25499813713646996	1.8754047682595762	-0.4553103141874421	-0.2563355740035302	1.7330341521415744	-0.4322373170354571													-0.2242221602395275	1.882029748957463	-0.5890665238015708	-0.21975975061716774	1.7375780547772561	-0.5530218672389063	-0.218092346676196	1.5901366584125645	-0.535656456347879	-0.22586592966311805	1.5601044108431936	-0.603120605862362	-0.21430743555207526	1.5688298598996726	-0.6163258664647064	-0.22669687492434057	1.584286569961312	-0.5129991779677385	-0.2400660144789095	2.051199088939662	-0.5257368814507176	-0.24752093498019312	2.124631922856762	-0.5761836443758591	-0.2615627961756074	2.048138710468985	-0.4343576534029271	-0.26907304732451165	1.9550916176153468	-0.40161268616433543	-0.27768886683418864	1.8744667713149226	-0.3937332514551398	-0.21174233974457776	2.0535864473009626	-0.6216802993714634	-1.4329304911319332	1.8728634110497324	0.6668842084802051	-0.20168798871763358	1.8940428862841057	-0.6472865116896949
30	1.0	-0.241782576069343	1.8775032954219601	-0.5269084259086182	-0.2560624087119639	1.8724677752829113	-0.4580447734139777	-0.2561821497280644	1.732678449564037	-0.4323561936499074													-0.22432108379803448	1.8786568819327416	-0.588723927718926	-0.219749265135437	1.7374173655362697	-0.5529947546491664	-0.21809312763283925	1.590153764540717	-0.5356622427882329	-0.2256523716892362	1.5616765882882715	-0.6036070180129309	-0.21436009355560234	1.5691173272729069	-0.6163211816413645	-0.22669687492434057	1.584286569961312	-0.5129991779677385	-0.2401691567041594	2.0500768058348853	-0.5258064940157011	-0.24755051454328067	2.1245324557048275	-0.5761361890847747	-0.2615689814007219	2.048137040114345	-0.43425390902234906	-0.2701028303212846	1.9550123474500496	-0.4047218701080625	-0.2786447819083818	1.8734923403459607	-0.3966273155477476	-0.21177164585386032	2.0534488497048216	-0.621730763392346	-1.414225386625561	1.8733286359222243	0.6349468746768338	-0.20151370566485616	1.8891378403694716	-0.6470433344683293
31	1.0333333333333334	-0.24208208927153035	1.878106851587031	-0.5270012246206556	-0.25813337116948615	1.875417840752842	-0.4564315227230752	-0.2560287254525986	1.7323227469864997	-0.4324750702643577													-0.22473170321780267	1.8808319278221615	-0.5890142916907488	-0.22187848154242995	1.7377693227228763	-0.5507482425940325	-0.21809390858948252	1.5901708706688698	-0.5356680292285868	-0.2246832468834947	1.558840917423327	-0.6001452977764902	-0.2114899211764637	1.5672572477235003	-0.6146927577007585	-0.22669687492434057	1.584286569961312	-0.5129991779677385	-0.24009992337125777	2.052430968902438	-0.5261074767784641	-0.24750145674001775	2.1233397907894638	-0.5755705545965191	-0.26154733066874464	2.048125273173437	-0.4342157551295561	-0.2681334181658592	1.9563313642382196	-0.406860486929081	-0.2757490647430283	1.8783290953424416	-0.396674208045077	-0.21183288624351584	2.054613485336065	-0.6220944230927643	-1.441870011967713	1.87304020783125	0.6819778902370596	-0.20163854663907943	1.889286995607821	-0.6467684225649595
32	1.0666666666666667	-0.24168461133122815	1.8766583227662146	-0.5265924553119458	-0.25491567540936794	1.8734885406600919	-0.45508351853006584	-0.2560303275238301	1.7318741652264054	-0.43243107971850747													-0.2263682755997478	1.8788956212901824	-0.5864812799801156	-0.2214947085980717	1.7349920742900815	-0.5508590861501709	-0.21779596568234355	1.5901722989595952	-0.535971063491605	-0.22561742511120647	1.5616226111102047	-0.603683923558864	-0.2122774187717059	1.5690921102400381	-0.6184715882019002	-0.22669687492434057	1.584286569961312	-0.5129991779677385	-0.24016526520156517	2.0501229317923992	-0.5257040045849326	-0.24657109258841	2.123154348206797	-0.5726496384949333	-0.26153995790372275	2.04809642291203	-0.4342169775259085	-0.26714882888370123	1.9534900276958047	-0.4033271260724788	-0.27771495722719947	1.8739874503891845	-0.3937472531966563	-0.21380520077646542	2.0533127827811026	-0.6195064284909038	-1.44875568676329	1.8716903429638103	0.6943011517619158	-0.20172258075173616	1.8858279546141399	-0.6462155856481065
